ffmpeg started on 2025-05-12 at 20:55:08
Report written to "D:\Convert\FFMetrics\reports\psnr_report-6.txt"
Log level: 32
Command line:
ffmpeg -hide_banner -nostdin -i "G:\\\xc0\xed\xe8\xec\xe5\\\xce\xed\xe3\xee\xe8\xed\xe3\xe8\\!_35_\xcb\xe5\xf2\xee_2024\\DreamCast-1\\\xcf\xf0\xe8\xea\xeb\xfe\xf7\xe5\xed\xe8\xff \xe2 \xe4\xf0\xf3\xe3\xee\xec \xec\xe8\xf0\xe5 - \xc2\xee\xf1\xef\xe8\xf2\xfb\xe2\xe0\xf2\xfc \xe4\xe5\xf2\xe5\xe9 \xe1\xf3\xe4\xf3\xf7\xe8 \xe0\xe2\xe0\xed\xf2\xfe\xf0\xe8\xf1\xf2\xee\xec\\[DC] Iseyuru - 09_Telegram_HEVC.mkv" -i "G:\\\xc0\xed\xe8\xec\xe5\\\xce\xed\xe3\xee\xe8\xed\xe3\xe8\\!_35_\xcb\xe5\xf2\xee_2024\\DreamCast-1\\\xcf\xf0\xe8\xea\xeb\xfe\xf7\xe5\xed\xe8\xff \xe2 \xe4\xf0\xf3\xe3\xee\xec \xec\xe8\xf0\xe5 - \xc2\xee\xf1\xef\xe8\xf2\xfb\xe2\xe0\xf2\xfc \xe4\xe5\xf2\xe5\xe9 \xe1\xf3\xe4\xf3\xf7\xe8 \xe0\xe2\xe0\xed\xf2\xfe\xf0\xe8\xf1\xf2\xee\xec\\[DC] Iseyuru - 09_Telegram.mp4" -lavfi "[0:v]settb=AVTB,setpts=PTS-STARTPTS,format=pix_fmts=yuv420p10,fps=24000/1001,scale=1920:1080:flags=bicubic[main];[1:v]settb=AVTB,setpts=PTS-STARTPTS,format=pix_fmts=yuv420p,fps=24000/1001,scale=1920:1080:flags=bicubic[ref];[main][ref]psnr=eof_action=endall:stats_file='D\\:/Convert/FFMetrics/logs/psnr_logfile-6.txt'" -f null -
Input #0, matroska,webm, from 'G:\Аниме\Онгоинги\!_35_Лето_2024\DreamCast-1\Приключения в другом мире - Воспитывать детей будучи авантюристом\[DC] Iseyuru - 09_Telegram_HEVC.mkv':
  Metadata:
    COMPATIBLE_BRANDS: isomiso2avc1mp41
    MAJOR_BRAND     : isom
    MINOR_VERSION   : 512
    ENCODER         : Lavf61.7.100
  Duration: 00:23:56.67, start: -0.021000, bitrate: 936 kb/s
  Stream #0:0: Video: hevc (Main 10), yuv420p10le(tv, bt709, progressive), 1920x1080 [SAR 1:1 DAR 16:9], 23.98 fps, 23.98 tbr, 1k tbn (default)
      Metadata:
        HANDLER_NAME    : VideoHandler
        VENDOR_ID       : [0][0][0][0]
        ENCODER         : Lavc61.19.100 libx265
        BPS             : 738921
        DURATION        : 00:23:56.559708333
        NUMBER_OF_FRAMES: 34443
        NUMBER_OF_BYTES : 132688070
        _STATISTICS_WRITING_APP: mkvpropedit v66.0.0 ('Josie') 64-bit
        _STATISTICS_WRITING_DATE_UTC: 2025-05-10 14:05:23
        _STATISTICS_TAGS: BPS DURATION NUMBER_OF_FRAMES NUMBER_OF_BYTES
  Stream #0:1: Audio: aac (LC), 48000 Hz, stereo, fltp (default)
      Metadata:
        HANDLER_NAME    : SoundHandler
        VENDOR_ID       : [0][0][0][0]
        ENCODER         : Lavc61.19.100 aac
        BPS             : 193372
        DURATION        : 00:23:56.672000000
        NUMBER_OF_FRAMES: 67345
        NUMBER_OF_BYTES : 34726545
        _STATISTICS_WRITING_APP: mkvpropedit v66.0.0 ('Josie') 64-bit
        _STATISTICS_WRITING_DATE_UTC: 2025-05-10 14:05:23
        _STATISTICS_TAGS: BPS DURATION NUMBER_OF_FRAMES NUMBER_OF_BYTES
Input #1, mov,mp4,m4a,3gp,3g2,mj2, from 'G:\Аниме\Онгоинги\!_35_Лето_2024\DreamCast-1\Приключения в другом мире - Воспитывать детей будучи авантюристом\[DC] Iseyuru - 09_Telegram.mp4':
  Metadata:
    major_brand     : isom
    minor_version   : 512
    compatible_brands: isomiso2avc1mp41
    encoder         : Lavf61.1.100
  Duration: 00:23:56.63, start: 0.000000, bitrate: 3542 kb/s
  Stream #1:0[0x1](und): Video: h264 (High) (avc1 / 0x31637661), yuv420p(tv, bt709, progressive), 1920x1080 [SAR 1:1 DAR 16:9], 3394 kb/s, 23.98 fps, 23.98 tbr, 24k tbn (default)
      Metadata:
        handler_name    : VideoHandler
        vendor_id       : [0][0][0][0]
        encoder         : Lavc61.3.100 h264_qsv
  Stream #1:1[0x2](und): Audio: aac (HE-AACv2) (mp4a / 0x6134706D), 48000 Hz, stereo, fltp, 144 kb/s (default)
      Metadata:
        handler_name    : SoundHandler
        vendor_id       : [0][0][0][0]
Stream mapping:
  Stream #0:0 (hevc) -> settb:default
  Stream #1:0 (h264) -> settb:default
  psnr:default -> Stream #0:0 (wrapped_avframe)
  Stream #0:1 -> #0:1 (aac (native) -> pcm_s16le (native))
Output #0, null, to 'pipe:':
  Metadata:
    COMPATIBLE_BRANDS: isomiso2avc1mp41
    MAJOR_BRAND     : isom
    MINOR_VERSION   : 512
    encoder         : Lavf61.7.100
  Stream #0:0: Video: wrapped_avframe, yuv420p10le(tv, bt709, progressive), 1920x1080 [SAR 1:1 DAR 16:9], q=2-31, 200 kb/s, 23.98 fps, 23.98 tbn
      Metadata:
        encoder         : Lavc61.19.100 wrapped_avframe
  Stream #0:1: Audio: pcm_s16le, 48000 Hz, stereo, s16, 1536 kb/s (default)
      Metadata:
        HANDLER_NAME    : SoundHandler
        VENDOR_ID       : [0][0][0][0]
        _STATISTICS_TAGS: BPS DURATION NUMBER_OF_FRAMES NUMBER_OF_BYTES
        BPS             : 193372
        DURATION        : 00:23:56.672000000
        NUMBER_OF_FRAMES: 67345
        NUMBER_OF_BYTES : 34726545
        _STATISTICS_WRITING_APP: mkvpropedit v66.0.0 ('Josie') 64-bit
        _STATISTICS_WRITING_DATE_UTC: 2025-05-10 14:05:23
        encoder         : Lavc61.19.100 pcm_s16le
frame=  155 fps=0.0 q=-0.0 size=N/A time=00:00:06.46 bitrate=N/A speed=12.5x    frame=  415 fps=405 q=-0.0 size=N/A time=00:00:17.30 bitrate=N/A speed=16.9x    frame=  678 fps=438 q=-0.0 size=N/A time=00:00:28.27 bitrate=N/A speed=18.3x    frame=  922 fps=446 q=-0.0 size=N/A time=00:00:38.45 bitrate=N/A speed=18.6x    frame= 1167 fps=453 q=-0.0 size=N/A time=00:00:48.71 bitrate=N/A speed=18.9x    frame= 1416 fps=457 q=-0.0 size=N/A time=00:00:59.05 bitrate=N/A speed=19.1x    frame= 1654 fps=457 q=-0.0 size=N/A time=00:01:08.98 bitrate=N/A speed=19.1x    frame= 1870 fps=452 q=-0.0 size=N/A time=00:01:17.99 bitrate=N/A speed=18.8x    frame= 2098 fps=450 q=-0.0 size=N/A time=00:01:27.50 bitrate=N/A speed=18.8x    frame= 2322 fps=450 q=-0.0 size=N/A time=00:01:36.84 bitrate=N/A speed=18.8x    frame= 2561 fps=450 q=-0.0 size=N/A time=00:01:46.81 bitrate=N/A speed=18.8x    frame= 2791 fps=450 q=-0.0 size=N/A time=00:01:56.40 bitrate=N/A speed=18.8x    frame= 3052 fps=454 q=-0.0 size=N/A time=00:02:07.29 bitrate=N/A speed=18.9x    frame= 3305 fps=457 q=-0.0 size=N/A time=00:02:17.84 bitrate=N/A speed=19.1x    frame= 3544 fps=457 q=-0.0 size=N/A time=00:02:27.81 bitrate=N/A speed=19.1x    frame= 3787 fps=458 q=-0.0 size=N/A time=00:02:37.94 bitrate=N/A speed=19.1x    frame= 4016 fps=457 q=-0.0 size=N/A time=00:02:47.50 bitrate=N/A speed=19.1x    frame= 4252 fps=457 q=-0.0 size=N/A time=00:02:57.34 bitrate=N/A speed=19.1x    frame= 4479 fps=456 q=-0.0 size=N/A time=00:03:06.81 bitrate=N/A speed=  19x    frame= 4707 fps=456 q=-0.0 size=N/A time=00:03:16.32 bitrate=N/A speed=  19x    frame= 4935 fps=455 q=-0.0 size=N/A time=00:03:25.83 bitrate=N/A speed=  19x    frame= 5167 fps=455 q=-0.0 size=N/A time=00:03:35.50 bitrate=N/A speed=  19x    frame= 5419 fps=456 q=-0.0 size=N/A time=00:03:46.01 bitrate=N/A speed=  19x    frame= 5671 fps=457 q=-0.0 size=N/A time=00:03:56.52 bitrate=N/A speed=19.1x    frame= 5901 fps=456 q=-0.0 size=N/A time=00:04:06.12 bitrate=N/A speed=  19x    frame= 6092 fps=453 q=-0.0 size=N/A time=00:04:14.08 bitrate=N/A speed=18.9x    frame= 6238 fps=447 q=-0.0 size=N/A time=00:04:20.17 bitrate=N/A speed=18.6x    frame= 6410 fps=443 q=-0.0 size=N/A time=00:04:27.35 bitrate=N/A speed=18.5x    frame= 6641 fps=443 q=-0.0 size=N/A time=00:04:36.98 bitrate=N/A speed=18.5x    frame= 6862 fps=443 q=-0.0 size=N/A time=00:04:46.20 bitrate=N/A speed=18.5x    frame= 7042 fps=440 q=-0.0 size=N/A time=00:04:53.71 bitrate=N/A speed=18.3x    frame= 7257 fps=439 q=-0.0 size=N/A time=00:05:02.67 bitrate=N/A speed=18.3x    frame= 7487 fps=439 q=-0.0 size=N/A time=00:05:12.27 bitrate=N/A speed=18.3x    frame= 7675 fps=437 q=-0.0 size=N/A time=00:05:20.11 bitrate=N/A speed=18.2x    frame= 7913 fps=437 q=-0.0 size=N/A time=00:05:30.03 bitrate=N/A speed=18.2x    frame= 8139 fps=437 q=-0.0 size=N/A time=00:05:39.46 bitrate=N/A speed=18.2x    frame= 8375 fps=438 q=-0.0 size=N/A time=00:05:49.30 bitrate=N/A speed=18.3x    frame= 8594 fps=437 q=-0.0 size=N/A time=00:05:58.44 bitrate=N/A speed=18.2x    frame= 8837 fps=438 q=-0.0 size=N/A time=00:06:08.57 bitrate=N/A speed=18.3x    frame= 9064 fps=438 q=-0.0 size=N/A time=00:06:18.04 bitrate=N/A speed=18.3x    frame= 9316 fps=440 q=-0.0 size=N/A time=00:06:28.55 bitrate=N/A speed=18.3x    frame= 9556 fps=440 q=-0.0 size=N/A time=00:06:38.56 bitrate=N/A speed=18.4x    frame= 9787 fps=440 q=-0.0 size=N/A time=00:06:48.19 bitrate=N/A speed=18.4x    frame= 9987 fps=439 q=-0.0 size=N/A time=00:06:56.54 bitrate=N/A speed=18.3x    frame=10185 fps=438 q=-0.0 size=N/A time=00:07:04.79 bitrate=N/A speed=18.3x    frame=10404 fps=438 q=-0.0 size=N/A time=00:07:13.93 bitrate=N/A speed=18.3x    frame=10606 fps=437 q=-0.0 size=N/A time=00:07:22.35 bitrate=N/A speed=18.2x    frame=10824 fps=436 q=-0.0 size=N/A time=00:07:31.45 bitrate=N/A speed=18.2x    frame=11006 fps=435 q=-0.0 size=N/A time=00:07:39.04 bitrate=N/A speed=18.1x    frame=11181 fps=433 q=-0.0 size=N/A time=00:07:46.34 bitrate=N/A speed=18.1x    frame=11417 fps=433 q=-0.0 size=N/A time=00:07:56.18 bitrate=N/A speed=18.1x    frame=11624 fps=433 q=-0.0 size=N/A time=00:08:04.81 bitrate=N/A speed=  18x    frame=11869 fps=434 q=-0.0 size=N/A time=00:08:15.03 bitrate=N/A speed=18.1x    frame=12124 fps=435 q=-0.0 size=N/A time=00:08:25.67 bitrate=N/A speed=18.1x    frame=12377 fps=436 q=-0.0 size=N/A time=00:08:36.22 bitrate=N/A speed=18.2x    frame=12635 fps=437 q=-0.0 size=N/A time=00:08:46.98 bitrate=N/A speed=18.2x    frame=12900 fps=438 q=-0.0 size=N/A time=00:08:58.03 bitrate=N/A speed=18.3x    frame=13150 fps=439 q=-0.0 size=N/A time=00:09:08.46 bitrate=N/A speed=18.3x    frame=13369 fps=438 q=-0.0 size=N/A time=00:09:17.59 bitrate=N/A speed=18.3x    frame=13621 fps=439 q=-0.0 size=N/A time=00:09:28.10 bitrate=N/A speed=18.3x    frame=13869 fps=440 q=-0.0 size=N/A time=00:09:38.45 bitrate=N/A speed=18.4x    frame=14102 fps=440 q=-0.0 size=N/A time=00:09:48.17 bitrate=N/A speed=18.4x    frame=14340 fps=441 q=-0.0 size=N/A time=00:09:58.09 bitrate=N/A speed=18.4x    frame=14589 fps=441 q=-0.0 size=N/A time=00:10:08.48 bitrate=N/A speed=18.4x    frame=14833 fps=442 q=-0.0 size=N/A time=00:10:18.65 bitrate=N/A speed=18.4x    frame=15068 fps=442 q=-0.0 size=N/A time=00:10:28.46 bitrate=N/A speed=18.4x    frame=15333 fps=443 q=-0.0 size=N/A time=00:10:39.51 bitrate=N/A speed=18.5x    frame=15589 fps=444 q=-0.0 size=N/A time=00:10:50.19 bitrate=N/A speed=18.5x    frame=15834 fps=444 q=-0.0 size=N/A time=00:11:00.40 bitrate=N/A speed=18.5x    frame=16099 fps=445 q=-0.0 size=N/A time=00:11:11.46 bitrate=N/A speed=18.6x    frame=16355 fps=446 q=-0.0 size=N/A time=00:11:22.13 bitrate=N/A speed=18.6x    frame=16606 fps=446 q=-0.0 size=N/A time=00:11:32.60 bitrate=N/A speed=18.6x    frame=16838 fps=447 q=-0.0 size=N/A time=00:11:42.28 bitrate=N/A speed=18.6x    frame=17074 fps=447 q=-0.0 size=N/A time=00:11:52.12 bitrate=N/A speed=18.6x    frame=17313 fps=447 q=-0.0 size=N/A time=00:12:02.09 bitrate=N/A speed=18.6x    frame=17490 fps=446 q=-0.0 size=N/A time=00:12:09.47 bitrate=N/A speed=18.6x    frame=17673 fps=444 q=-0.0 size=N/A time=00:12:17.11 bitrate=N/A speed=18.5x    frame=17919 fps=445 q=-0.0 size=N/A time=00:12:27.37 bitrate=N/A speed=18.6x    frame=18169 fps=445 q=-0.0 size=N/A time=00:12:37.79 bitrate=N/A speed=18.6x    frame=18400 fps=445 q=-0.0 size=N/A time=00:12:47.43 bitrate=N/A speed=18.6x    frame=18672 fps=446 q=-0.0 size=N/A time=00:12:58.77 bitrate=N/A speed=18.6x    frame=18922 fps=447 q=-0.0 size=N/A time=00:13:09.20 bitrate=N/A speed=18.6x    frame=19186 fps=448 q=-0.0 size=N/A time=00:13:20.21 bitrate=N/A speed=18.7x    frame=19447 fps=448 q=-0.0 size=N/A time=00:13:31.10 bitrate=N/A speed=18.7x    frame=19701 fps=449 q=-0.0 size=N/A time=00:13:41.69 bitrate=N/A speed=18.7x    frame=19937 fps=449 q=-0.0 size=N/A time=00:13:51.53 bitrate=N/A speed=18.7x    frame=20177 fps=449 q=-0.0 size=N/A time=00:14:01.54 bitrate=N/A speed=18.7x    frame=20434 fps=450 q=-0.0 size=N/A time=00:14:12.26 bitrate=N/A speed=18.8x    frame=20597 fps=448 q=-0.0 size=N/A time=00:14:19.06 bitrate=N/A speed=18.7x    frame=20808 fps=448 q=-0.0 size=N/A time=00:14:27.86 bitrate=N/A speed=18.7x    frame=21071 fps=448 q=-0.0 size=N/A time=00:14:38.83 bitrate=N/A speed=18.7x    frame=21327 fps=449 q=-0.0 size=N/A time=00:14:49.51 bitrate=N/A speed=18.7x    frame=21590 fps=450 q=-0.0 size=N/A time=00:15:00.48 bitrate=N/A speed=18.7x    frame=21838 fps=450 q=-0.0 size=N/A time=00:15:10.82 bitrate=N/A speed=18.8x    frame=22079 fps=450 q=-0.0 size=N/A time=00:15:20.87 bitrate=N/A speed=18.8x    frame=22305 fps=450 q=-0.0 size=N/A time=00:15:30.30 bitrate=N/A speed=18.8x    frame=22555 fps=450 q=-0.0 size=N/A time=00:15:40.73 bitrate=N/A speed=18.8x    frame=22814 fps=451 q=-0.0 size=N/A time=00:15:51.53 bitrate=N/A speed=18.8x    frame=23079 fps=451 q=-0.0 size=N/A time=00:16:02.58 bitrate=N/A speed=18.8x    frame=23352 fps=452 q=-0.0 size=N/A time=00:16:13.97 bitrate=N/A speed=18.9x    frame=23599 fps=452 q=-0.0 size=N/A time=00:16:24.27 bitrate=N/A speed=18.9x    frame=23856 fps=453 q=-0.0 size=N/A time=00:16:34.99 bitrate=N/A speed=18.9x    frame=24060 fps=452 q=-0.0 size=N/A time=00:16:43.50 bitrate=N/A speed=18.9x    frame=24304 fps=452 q=-0.0 size=N/A time=00:16:53.67 bitrate=N/A speed=18.9x    frame=24530 fps=452 q=-0.0 size=N/A time=00:17:03.10 bitrate=N/A speed=18.9x    frame=24776 fps=452 q=-0.0 size=N/A time=00:17:13.36 bitrate=N/A speed=18.9x    frame=25041 fps=453 q=-0.0 size=N/A time=00:17:24.41 bitrate=N/A speed=18.9x    frame=25272 fps=453 q=-0.0 size=N/A time=00:17:34.05 bitrate=N/A speed=18.9x    frame=25519 fps=453 q=-0.0 size=N/A time=00:17:44.35 bitrate=N/A speed=18.9x    frame=25736 fps=453 q=-0.0 size=N/A time=00:17:53.40 bitrate=N/A speed=18.9x    frame=25964 fps=453 q=-0.0 size=N/A time=00:18:02.91 bitrate=N/A speed=18.9x    frame=26215 fps=453 q=-0.0 size=N/A time=00:18:13.38 bitrate=N/A speed=18.9x    frame=26459 fps=453 q=-0.0 size=N/A time=00:18:23.56 bitrate=N/A speed=18.9x    frame=26706 fps=453 q=-0.0 size=N/A time=00:18:33.86 bitrate=N/A speed=18.9x    frame=26970 fps=454 q=-0.0 size=N/A time=00:18:44.87 bitrate=N/A speed=18.9x    frame=27239 fps=455 q=-0.0 size=N/A time=00:18:56.09 bitrate=N/A speed=  19x    frame=27501 fps=455 q=-0.0 size=N/A time=00:19:07.02 bitrate=N/A speed=  19x    frame=27745 fps=455 q=-0.0 size=N/A time=00:19:17.19 bitrate=N/A speed=  19x    frame=28015 fps=456 q=-0.0 size=N/A time=00:19:28.45 bitrate=N/A speed=  19x    frame=28251 fps=456 q=-0.0 size=N/A time=00:19:38.30 bitrate=N/A speed=  19x    frame=28497 fps=456 q=-0.0 size=N/A time=00:19:48.56 bitrate=N/A speed=  19x    frame=28754 fps=456 q=-0.0 size=N/A time=00:19:59.28 bitrate=N/A speed=  19x    frame=29007 fps=457 q=-0.0 size=N/A time=00:20:09.83 bitrate=N/A speed=  19x    frame=29235 fps=456 q=-0.0 size=N/A time=00:20:19.34 bitrate=N/A speed=  19x    frame=29493 fps=457 q=-0.0 size=N/A time=00:20:30.10 bitrate=N/A speed=19.1x    frame=29760 fps=457 q=-0.0 size=N/A time=00:20:41.24 bitrate=N/A speed=19.1x    frame=30033 fps=458 q=-0.0 size=N/A time=00:20:52.62 bitrate=N/A speed=19.1x    frame=30291 fps=458 q=-0.0 size=N/A time=00:21:03.38 bitrate=N/A speed=19.1x    frame=30561 fps=459 q=-0.0 size=N/A time=00:21:14.64 bitrate=N/A speed=19.1x    frame=30831 fps=459 q=-0.0 size=N/A time=00:21:25.90 bitrate=N/A speed=19.2x    frame=31077 fps=459 q=-0.0 size=N/A time=00:21:36.16 bitrate=N/A speed=19.2x    frame=31326 fps=460 q=-0.0 size=N/A time=00:21:46.55 bitrate=N/A speed=19.2x    frame=31550 fps=459 q=-0.0 size=N/A time=00:21:55.89 bitrate=N/A speed=19.2x    frame=31791 fps=459 q=-0.0 size=N/A time=00:22:05.94 bitrate=N/A speed=19.2x    frame=32037 fps=459 q=-0.0 size=N/A time=00:22:16.20 bitrate=N/A speed=19.2x    frame=32288 fps=460 q=-0.0 size=N/A time=00:22:26.67 bitrate=N/A speed=19.2x    frame=32536 fps=460 q=-0.0 size=N/A time=00:22:37.02 bitrate=N/A speed=19.2x    frame=32771 fps=460 q=-0.0 size=N/A time=00:22:46.82 bitrate=N/A speed=19.2x    frame=32982 fps=459 q=-0.0 size=N/A time=00:22:55.62 bitrate=N/A speed=19.2x    frame=33185 fps=459 q=-0.0 size=N/A time=00:23:04.09 bitrate=N/A speed=19.1x    frame=33397 fps=459 q=-0.0 size=N/A time=00:23:12.93 bitrate=N/A speed=19.1x    frame=33596 fps=458 q=-0.0 size=N/A time=00:23:21.23 bitrate=N/A speed=19.1x    frame=33797 fps=458 q=-0.0 size=N/A time=00:23:29.61 bitrate=N/A speed=19.1x    frame=33967 fps=457 q=-0.0 size=N/A time=00:23:36.70 bitrate=N/A speed=19.1x    frame=34173 fps=456 q=-0.0 size=N/A time=00:23:45.29 bitrate=N/A speed=  19x    frame=34364 fps=456 q=-0.0 size=N/A time=00:23:53.26 bitrate=N/A speed=  19x    [Parsed_psnr_10 @ 00000294dee784c0] PSNR y:49.839705 u:49.614282 v:49.919007 average:49.814314 min:42.928247 max:inf
[out#0/null @ 00000294dc4a4e00] video:14800KiB audio:269380KiB subtitle:0KiB other streams:0KiB global headers:0KiB muxing overhead: unknown
frame=34443 fps=456 q=-0.0 Lsize=N/A time=00:23:56.56 bitrate=N/A speed=  19x    
